<svg xmlns="http://www.w3.org/2000/svg" viewBox="0 0 512 512" role="img" aria-label="Langua Quest app icon">
  <defs>
    <linearGradient id="bg" x1="86" y1="52" x2="426" y2="460" gradientUnits="userSpaceOnUse">
      <stop stop-color="#FFE27A"/>
      <stop offset="0.58" stop-color="#FFAC3D"/>
      <stop offset="1" stop-color="#F36B2F"/>
    </linearGradient>
    <filter id="shadow" x="-20%" y="-20%" width="140%" height="140%">
      <feDropShadow dx="0" dy="16" stdDeviation="18" flood-color="#8A351B" flood-opacity="0.24"/>
    </filter>
  </defs>

  <rect width="512" height="512" rx="112" fill="url(#bg)"/>
  <circle cx="394" cy="116" r="34" fill="#FFF3A8" opacity="0.48"/>

  <g filter="url(#shadow)">
    <path d="M256 74l58 128 124 54-124 54-58 128-58-128-124-54 124-54 58-128Z" fill="#FFF8E7"/>
    <path d="M256 74l58 128 124 54-182 0V74Z" fill="#FFFFFF"/>
    <path d="M256 438l-58-128-124-54h182v182Z" fill="#FFE7B0"/>
    <path d="M256 142l34 82 80 32-80 32-34 82-34-82-80-32 80-32 34-82Z" fill="#167C88"/>
    <circle cx="256" cy="256" r="31" fill="#FFF8E7"/>
    <circle cx="256" cy="256" r="14" fill="#167C88"/>
  </g>
</svg>
